<svg id="Layer_1" data-name="Layer 1" xmlns="http://www.w3.org/2000/svg" viewBox="0 0 1086 1086"><defs><style>.cls-1{fill:#a32146;}.cls-1,.cls-2{stroke:#fff;stroke-width:6px;}.cls-1,.cls-11,.cls-12,.cls-2,.cls-6,.cls-7,.cls-8,.cls-9{stroke-miterlimit:10;}.cls-2,.cls-5,.cls-9{fill:#231f20;}.cls-3,.cls-7{fill:#f0a635;}.cls-4{fill:#e9e9ea;}.cls-6{fill:#ef3827;}.cls-11,.cls-12,.cls-6,.cls-7,.cls-8,.cls-9{stroke:#231f20;}.cls-10,.cls-12,.cls-8{fill:#fff;}.cls-11{fill:none;}.cls-12{font-size:50px;stroke-width:0.75px;font-family:CopperplateGothic-Bold, Copperplate Gothic Bold;font-weight:700;}</style></defs><circle class="cls-1" cx="543" cy="543" r="540"/><circle class="cls-2" cx="543" cy="543" r="400"/><path class="cls-3" d="M356.4,471l45.26-26,16.85,13,10.65-6.28c31.14,25,102.37,74.25,185.13,62.46a180.76,180.76,0,0,0,22.52-4.7c-18.3,24.77-14.64,57.32,6.21,75.4,18.81,16.25,47.15,16.75,67.44,6.71a60.85,60.85,0,0,0,28.4-30.15l-21.29-10.25-8-25.94,16.86,19.25,37.35-5.79L796.6,548l35.94-11.73-12.86,25.11c-.22,2.29-1.39,17.13,6.21,20.94,8.78,4.39,23.59-8.78,30.17-16.75,11.3-13.7,12.61-29.56,12.42-38.51,1.7-15.78,6.19-74.77-36-117.63a128.3,128.3,0,0,0-27.87-21.32,153,153,0,0,0-22.11-50.53c-35-51.68-93.34-67.72-141.17-80.88-23-6.3-116.83-29.9-225.49,2.41a396.5,396.5,0,0,0-38.14,13.49,346.91,346.91,0,0,1,124.16,66.9L356.4,291.83V304.4l76.79,41.85L423,390.61Z" transform="translate(3 3)"/><path class="cls-4" d="M726.36,868.55c-56.52,15.61-117.57,1.93-160.61-36l5,10L612,878.53H715.71Z" transform="translate(3 3)"/><path class="cls-4" d="M376.59,682.32c18.13,19.37,45.92,25.54,67.55,16s28.2-31.08,29.17-34.48a81.15,81.15,0,0,1,14.2,63.61c-6.29,1.94-36.26,10.53-68.33-4.19A89.5,89.5,0,0,1,376.59,682.32Z" transform="translate(3 3)"/><path class="cls-4" d="M395.18,754.66c2.16,2,5.24,5,8.69,8.84,4,4.41,6.53,7.78,9,11,3.4,4.41,8.32,10.75,14.76,18.74l57.12-53.57-32.32-7.89Z" transform="translate(3 3)"/><path class="cls-4" d="M804.6,589c1.7,1.39,15.07,12.33,33.71,9.2,21.34-3.57,29.68-22.28,30.17-23.44-1.11,19.66-14,36.44-32.08,42.26-19.76,6.42-37.13-3.08-39.8-4.59Z" transform="translate(3 3)"/><path class="cls-4" d="M607.52,561.36c2.66,30.11,16.72,45.75,22.64,51.43,31.5,30.37,94.58,32.22,151.29-2l-3.56-24.69c-3.13,3-40.27,37.71-94,28.87C632.64,606.52,609.91,565.8,607.52,561.36Z" transform="translate(3 3)"/><path class="cls-5" d="M427.39,794.06l54.05-52.73-54.12-15.9h62.12a102,102,0,0,0-9.7-52.73,495.73,495.73,0,0,1,51.35,74.6,484.84,484.84,0,0,1,39.73,92L612,877.76H716.67a96.61,96.61,0,0,0,26.41-32.65,90.76,90.76,0,0,0,6-15.89H742.4a72.39,72.39,0,0,1-17.86,14c-51.25,28.45-122.75-14.89-129.43-19.06l-1.79-20.08-55.9-104.64c-22.34-43.31-17.39-88.81,9.76-112.15,5.7-4.9,18.56-14.14,41.26-16.75l23.52-41c-1.7,7.45-10.3,48.13,15.09,77.18,30,34.37,97.44,40.88,153.51,3.21,2.48-19.87-6.7-39.43-24-51.06a50.55,50.55,0,0,1-39-8.38l-4.44-25.94,12.41,20.86,36.38-5,35.5,7.54,37.28-9.21A24.53,24.53,0,0,1,832,550.45a28.66,28.66,0,0,1-16,13.4q-4.87,11.22-9.76,22.6l-9.76,21.75c14.78,13.11,25.39,13,29.64,12.57,22.74-2.65,43.35-38.51,43.12-91.24,17.11,40.6,3.73,87-32.83,113.83-1.2,25.52-15.42,48.91-38.17,62.79q1.79-31.81,3.56-63.63a54.2,54.2,0,0,0-18.71,4.19c-34,14.55-49,65.95-42.52,128.07A93.07,93.07,0,0,0,771.69,748a92.33,92.33,0,0,1-15.09,54.42,30.94,30.94,0,0,1,6.21,10c8.28,22.24-11.91,53.22-47.91,79.51l-103.75-4.19-57.76-39.3A216.23,216.23,0,0,0,505.48,743H493.94L438,804.94Z" transform="translate(3 3)"/><path class="cls-5" d="M426.54,794.05,481,740.77l.35,1.33-54.18-16-5.34-1.6h67.7l-.85.74c1.86-20.14-3.09-40.42-12.6-58.42a502.75,502.75,0,0,1,58.34,84.6,473,473,0,0,1,37,87.14l41.14,38.51c-3.28-.31,104.89-.29,104.11-.24l-.55.19a99.92,99.92,0,0,0,20-21.72,89.92,89.92,0,0,0,12.07-26.41l.84,1H742.4l.64-.27a73.31,73.31,0,0,1-33.69,20.73c-26.22,7.38-54.25,1.38-79-8a223.9,223.9,0,0,1-36.11-17.73v-.4l-1.79-20.09.1.29L542.38,710.5c-5.68-10.4-11.22-21-14.56-32.35-8.72-27.77-7.9-60.85,11.91-84.37,11.6-14.21,30.12-22,48.66-24.06l-.65.41,23.53-41,2.84-5-1.26,5.51c-9.12,41.07,3.4,82.28,47.72,98.31,39.77,14.44,85.69,4.16,119.55-18.77l-.35.56a52.52,52.52,0,0,0-.28-14.44,53.64,53.64,0,0,0-23.33-35.92l.66.13a51.76,51.76,0,0,1-39.71-8.28c-6-8.23-8.2-19-4.08-28.44l.85,1.41,12.41,20.86-.87-.41,36.32-5a19.88,19.88,0,0,1,9.57.48,249.83,249.83,0,0,1,26.3,7.06h-.39A88.38,88.38,0,0,1,815,539.67c6.8-2,13.36-4.73,20.54-1.24v.32c.12,11.62-7.61,22-19.22,25.88l.5-.45-9.61,22.25-9.92,22.13-.2-.9c8.5,7.35,20,14.81,31.94,11.76s19.57-13.27,25.05-23c11-20.54,14.29-44,14.34-66.84v-4.27l1.7,4c17.52,41,2.58,89.39-32.78,114.18-1.32,26.31-16.25,50.33-40,64.26l.1-1.6L801,642.49l.9.83a51,51,0,0,0-28.79,10.25c-33.68,27-35.34,82.48-31.64,121.13l-1.27-.63A92.41,92.41,0,0,0,771,747.54l1.45-2a93.81,93.81,0,0,1-15.1,57.25v-.94a29.94,29.94,0,0,1,6.9,12.13l.48,1.68.24.83A42.89,42.89,0,0,1,761.58,841c-9.5,21.15-27.45,37.75-46.26,51.79-.27.14-103.83-4.3-104.12-4.21h-.26l-.22-.14-57.84-39.31c-6.47-38-22.39-75.24-48.08-105.62l.66.3H493.93c2.46-1.83-55.67,61.94-55.26,61.66l-.63.69c-3.9-4-7.77-8-11.52-12.1Zm1.7,0c3.56,3.45,7,6.83,10.43,10.33h-1.28l56.13-62.23h12.33l.25.3c25,29.64,43.46,69.94,47.76,105.33l57.68,39.33-.46-.16c-.39-.27,105.94,4.24,103.27,4.37,18.47-13.83,36.11-30.18,45.48-50.94,5.38-12.62,6.07-26.68-3.91-37.48l-.39-.44.32-.5a91.93,91.93,0,0,0,14.95-54l1.55.44A94.29,94.29,0,0,1,740,776.11c-2.78-27-2.45-54.67,5.29-81,7.38-26.1,26-52.84,57.55-53.44v.9l-3.55,63.61-1.31-.7c22.45-13.79,36.5-36.92,37.77-62.15V643l.31-.23c35.82-26.07,49.59-73.32,32.57-112.91l1.7-.29c0,23.07-3.4,46.74-14.53,67.58-14.66,26.35-35.71,33.27-59.66,11.69l-.44-.38.24-.52c5-10.94,14.83-33.29,19.52-44.36l.14-.32.35-.13c10.65-3.59,18.56-13.52,18.07-24.33l1.07.77h0c-4.68,5.68-11.21,6-17.81,7.46a94.1,94.1,0,0,1-19.83,1.68c-6.09-.54-12.09-1.51-18.06-2.55-3-.53-6-1.09-8.92-1.72a17.46,17.46,0,0,1-8.5-3.21c1.79-.2-36.55,5.14-36.07,5l-.58.08-.27-.48-12.44-20.94,1.58-.51a29.11,29.11,0,0,1,4.44,25.94l-.32-.51h0A49.87,49.87,0,0,0,757,558c17.62,11.82,27,31.73,24.61,52v.36l-.31.21A151.55,151.55,0,0,1,723,634.23c-40.82,7.81-91.85-5.86-108-45.42-7.84-18.82-8.13-39.8-3.8-59.36l1.59.56-23.53,41-.2.37c-25.51,2.53-47.27,15.77-57.44,38.27-11,24.18-8.69,52.13.8,76.42,5.91,15.21,20.72,40.22,28.29,55.12.2.24,33.5,62.57,33.54,62.91l1.7,20.08-.38-.61c41.93,25.35,107.82,46.42,146.27,5.17l.26-.27h8.06l-.27,1a95.1,95.1,0,0,1-32.66,49l-.23.19H611.55l-.23-.23-41.15-38.5-.15-.14v-.21a489.68,489.68,0,0,0-90.94-166.37l1.44-.82a103.1,103.1,0,0,1,9.84,53.12v.75H427.43l.25-1.6,54.09,15.93,1.32.39-1,.94-53.88,52.17Z" transform="translate(3 3)"/><path class="cls-6" d="M644.72,640.05l-25.66-11.79a162.52,162.52,0,0,0-8.61,41c-3.59,47.73,15.41,85,26.36,102.93a88.45,88.45,0,0,0,18.63-10,85.32,85.32,0,0,0,23.08-24.28c.57,3.49,5.1,33.81-17,53.35a56.62,56.62,0,0,1-22.9,12q1.71,8.37,3.56,16.73a16.1,16.1,0,0,0,13.3-.83,14.15,14.15,0,0,0,6.22-7.54l67.44,1.68c5.94-1,9.87-6.4,8.78-12a9.9,9.9,0,0,0-1.69-3.9l-49.68-12.55,40.82-1.6,5.33-9.21A162,162,0,0,1,753.1,645.91l-67,4.18a80.63,80.63,0,0,1-21,58.18H658A125.28,125.28,0,0,0,644.72,640.05Z" transform="translate(3 3)"/><path class="cls-5" d="M348.41,684.41l15.08-6.69,32.84,30.48c-35.8-39-57.25-87.85-61.16-139.3,12.3,43,43.15,79.12,85,99.61l79-51.06-9.76-34.32-21.3.83,7.09,28.46-47.91,37.67c-52.45-23-81.14-77.16-69.22-130.57l45.26-35.17,59.53,34.33.88,32.64,19.53,2.51V495.25L402.54,445,356.4,473.47l67.44-87.88,13.38-37.67-79.94-47.71L352.84,291l146.43,48.48A170.49,170.49,0,0,0,471.75,317c-19.29-12.7-32.32-15.62-62.12-30.14-13.21-6.42-23.65-12.2-30.17-15.9a440.9,440.9,0,0,1,147.22-26.65c21-.13,211.33.87,263.26,105.5a124.62,124.62,0,0,1,11.9,40,57.63,57.63,0,0,1,8.88,2.5c52.33,19.53,57.71,110.41,58.56,132.26a116.61,116.61,0,0,0-8-85.38c12.26-41.52,6.3-57.58-1.78-64.44-4.53-3.87-13.78-8.3-29.27-20.94-4.66-3.8-8.34-7.07-10.65-9.21,1.24-9.24,9.28-73.19-14.88-82.62a17.19,17.19,0,0,0-4.65-1.07,121.81,121.81,0,0,1-69.22,7.54,571.06,571.06,0,0,0-385.11-12.57,89.71,89.71,0,0,0-53.24-15.13q-2.12,8.72-3.9,18a341.32,341.32,0,0,0-5.86,65.65L308.47,368a146.84,146.84,0,0,0-25.73,70.31c-4.49,51.47,20.92,89.08,29.29,100.45a250.28,250.28,0,0,0,44.37,128l-15.09,6.71Z" transform="translate(3 3)"/><path class="cls-5" d="M348.66,683.64c5-2.37,10-4.67,15-6.88l.41.38,32.84,30.48-1.24,1.11A245,245,0,0,1,361.55,661a229.51,229.51,0,0,1-27.21-92.05l1.7-.27c12.28,42.77,43,78.73,84.75,99.09-4.76,1.87,79.55-51.61,78.12-51l-.34.87-9.88-34.25.85.59-21.3.84.79-1,7.11,28.43.12.48-.41.3-47.91,37.72-.43.34-.48-.23c-38.28-16.75-66.33-52.41-71.29-92-1.57-13.12-1.55-27.11,1.88-39.88l45.26-35.15.48-.37.51.3L463.4,518l.39.22v.44l.88,32.65-.73-.77,19.51,2.5-.95.8v-58.6c2.62,2.87-80.88-50.3-80.38-49.56h.93l-46.14,28.46-3.79,2.34,2.63-3.48c.12.3,67.61-89.7,66.67-87.89,0,0,14-37.44,14-37.46l.36.93-79.94-47.71-.21-.13-.12-.2-4.42-9.21-.83-1.72,1.89.63,146.4,48.54-.9,1.3a192.57,192.57,0,0,0-42.26-28.7c-26.55-12.56-56.33-21.21-78.48-40.78a451.62,451.62,0,0,1,121.85-26.12A511,511,0,0,1,668.31,262.6c66,19.26,125.78,57.6,134.37,127.08L802,389a52.86,52.86,0,0,1,20.09,7.14c38.78,24.39,47,87.68,48,128.35h0l-1.7-.18c8.51-28.25,4.93-59-8-85.38,4.77-17.43,13.05-47,0-62.12-5.27-5.07-12.31-8.38-18.21-12.84a265.2,265.2,0,0,1-23.32-18.85l-.31-.25v-.42q1.51-11.4,2-22.93c.51-16.34,1.7-57.16-20.81-59.87-19.45,8.89-46.56,11.89-69.29,7.53a567.23,567.23,0,0,0-93.78-28.06c-96.35-20.54-198.47-13.88-291.67,15.37A92.1,92.1,0,0,0,320,244.91a89.11,89.11,0,0,0-27.49-3.29l.8-.63a344.59,344.59,0,0,0-9.74,83.52l-.1-.38,25.73,43.52.25.42-.29.42a144.37,144.37,0,0,0-26,88.24,146.59,146.59,0,0,0,4.85,30.61,155.74,155.74,0,0,0,24.8,51.24,249.75,249.75,0,0,0,44.22,127.89l.53.77-.89.4-15.08,6.69.34-1.15c2.28,3.46,4.44,7,6.63,10.52Zm-.49,1.6c-2.72-3.91-5.46-8-8.08-12l.87-.38L356,666.17l-.36,1.17c-26.2-37.48-42.52-84.84-44.35-128.06a156.9,156.9,0,0,1-24.92-51.56,148.23,148.23,0,0,1-4.9-30.93,145.8,145.8,0,0,1,26.26-89.15v.83c0-.14-25.83-43.57-25.85-43.72a346.72,346.72,0,0,1,2.23-42.48A382.38,382.38,0,0,1,291.8,240a91.68,91.68,0,0,1,54.43,15.2c89.21-30.18,195.95-35.76,291.08-15.63a565.68,565.68,0,0,1,93.73,28,122.64,122.64,0,0,0,69.13-7.55c17.91,2.22,20.7,24.78,22.12,38.4a228.32,228.32,0,0,1-1.79,46.22l-.26-.68c3.76,3.21,7.49,6.5,11.28,9.63A254.18,254.18,0,0,0,855.89,371c14.26,8.2,14.31,26.09,12.54,40a180.49,180.49,0,0,1-6.24,28.37v-.55a117.76,117.76,0,0,1,8,85.93l-1.36,4.72s-.32-4.91-.32-4.93c-3-40.64-11-100.12-48.25-125.68a62.41,62.41,0,0,0-18.51-8.29l-.59-.18-.09-.51h0c-3.88-31.58-20-60.68-45.36-81.66C726.84,284,690.15,269.45,653.07,260A514.29,514.29,0,0,0,500,246a448.64,448.64,0,0,0-120.11,25.58s.13-1.48.15-1.45c22.11,7.75,42.08,19.16,63.61,28.26A152.76,152.76,0,0,1,500,338.92l1.95,2.25-2.85-.93L352.69,291.67l1.06-1.07,4.44,9.19c-2.15-1.76,80.12,47.92,79.52,47.38l.57.32-.21.61c0,.25-12.69,37.86-12.72,38.08s-68.07,87.6-68.27,87.76c0,0-1.19-1.14-1.14-1.14l46.13-28.46.47-.29c.24.24,80.89,50.26,81.22,50.52l.39.24v59.94l-1-.13-19.53-2.5-.71-.1v-.67l-.89-32.65.41.66L402.93,485h1l-45.21,35.09a113.57,113.57,0,0,0,35.12,107,126.08,126.08,0,0,0,33.92,22.19l-.9.1,47.91-37.66-.29.79-7.09-28.44-.24-.95h1l21.29-.83h.68l.17.62,9.83,34.24.15.54-.49.32-79,51.07-.42.27-.46-.22c-42.11-20.63-73.16-56.93-85.62-100.11l1.7-.28c3.92,51.3,25.33,100,61,138.91l-1.24,1.1L362.9,678.28l1,.16c-5.19,2.31-10.48,4.56-15.68,6.74Z" transform="translate(3 3)"/><path class="cls-7" d="M759.27,288.5,815.18,358q-.37-76.23-13.76-78.4a6.84,6.84,0,0,0-4.88,1.4Z" transform="translate(3 3)"/><path class="cls-8" d="M304.05,249.16c-19.61,59.61,6.34,124.16,62.93,156.52A48.94,48.94,0,0,0,393.6,373c-34.87-16.49-62.78-43.63-79.18-77V273.43Z" transform="translate(3 3)"/><path class="cls-8" d="M322.59,380.57c-7.23,9.95-34.7,50.25-22.91,98.1A105.41,105.41,0,0,0,314.49,512l31.21-75-4.39-39.75Z" transform="translate(3 3)"/><path class="cls-9" d="M624.31,419.91a89.6,89.6,0,0,0,35.5,37.67v12.54a99.66,99.66,0,0,1,63.9,22.61,277.89,277.89,0,0,0-27.52-5c-21.94-3-33.71-4.55-46.93-1.12-7.09,1.85-20.51,6.68-33.81,21.21l17.74-24.27-23.25,10.89,26.8-22.6L626.16,455l-48.08-8.77-46.87-30.56a96.1,96.1,0,0,1,44.37-2.38c25,4.81,43.7,20,48.8,15.07C626.35,426.37,625.3,422.43,624.31,419.91Z" transform="translate(3 3)"/><path class="cls-8" d="M585.35,428.28v12.55l34.59,5.45A44,44,0,0,0,585.35,428.28Z" transform="translate(3 3)"/><path class="cls-9" d="M446,343.73l23.08,5.86-11.53,56.15a128.1,128.1,0,0,1,48.51,31.83,106.38,106.38,0,0,1,7.4,8.78l24.83-13.82,21.38,13.75-56.79,27.19-75.43-53.56a185.62,185.62,0,0,1,18.62-76.18Z" transform="translate(3 3)"/><path class="cls-9" d="M497.48,394V375.55a68.16,68.16,0,0,1,22.2-24.28,70.18,70.18,0,0,1,15.08-7.54l16.86,7.54q1.32,11.73,2.67,23.44a115.29,115.29,0,0,0-13.32,5A111.44,111.44,0,0,0,511.68,399Z" transform="translate(3 3)"/><path class="cls-9" d="M497.48,318.74l12.43,8.68,44.38-8.68,48.35,25A88.44,88.44,0,0,1,604,356.3a91.15,91.15,0,0,1-6.21,36L610,399l9.93-55.26a175.92,175.92,0,0,0-65.65-38.5,100.5,100.5,0,0,0-56.81,13.51Z" transform="translate(3 3)"/><path class="cls-9" d="M838.24,498.58,792.1,455l23.08-4.18,8-13.88,15.09-8.71c-14.59-6.18-30.51-5.07-40.94,3.21a31,31,0,0,0-10.09,14.79,48.54,48.54,0,0,1-11.9-40.61,32.86,32.86,0,0,0-8.13,9.28,32.27,32.27,0,0,0-3.4,22.1,124.53,124.53,0,0,0,23.81,31.46A135.09,135.09,0,0,0,838.24,498.58Z" transform="translate(3 3)"/><path class="cls-8" d="M793.8,445.14a41.9,41.9,0,0,1,21.34-10.27,11.14,11.14,0,0,1-5.24,11.23A14.21,14.21,0,0,1,799.17,448,12.56,12.56,0,0,1,793.8,445.14Z" transform="translate(3 3)"/><path class="cls-9" d="M635,284.73a22.14,22.14,0,0,1,11.54,8.37,17.82,17.82,0,0,1,2.22,4.61L667,293.1a36.39,36.39,0,0,0-32-8.37Z" transform="translate(3 3)"/><path class="cls-9" d="M465.54,276.35l12.54,7.09,5.22,3,25.36-12.13a55.61,55.61,0,0,0-43.05,2.08Z" transform="translate(3 3)"/><path class="cls-9" d="M483.3,305.05l42.52-14.26a4.71,4.71,0,0,0-.45-6.06,4.21,4.21,0,0,0-2.67-.84l-39.47,10.58L427.32,273A462.51,462.51,0,0,1,554.22,263L548,271a7.09,7.09,0,0,0,4.88,3.77,6.73,6.73,0,0,0,3.55-.42c1-.62,8.69-5.66,9-14.23a15.8,15.8,0,0,0-1.93-8,481.64,481.64,0,0,0-159.21,16.81v6.28Z" transform="translate(3 3)"/><path class="cls-9" d="M640.81,320.71l43.91-7.52a6,6,0,0,0,0-4.61,6.69,6.69,0,0,0-4-3.53L643,310.6,589.33,275a132.19,132.19,0,0,1,37.28-2.94A134.26,134.26,0,0,1,694,296a5.74,5.74,0,0,0,6.21-.42,5.14,5.14,0,0,0,0-7.52C688,279.67,650,255.82,603.08,263a116.62,116.62,0,0,0-27.94,8c-.63,1.6-1.24,3.35-1.85,5Z" transform="translate(3 3)"/><path class="cls-9" d="M391,532l16.86-10.46,22.62,15.06a304,304,0,0,0,2.22,35.17A298.23,298.23,0,0,0,438,602.25l-13.32,6.28A96.43,96.43,0,0,1,404.31,585,93.65,93.65,0,0,1,391,532Z" transform="translate(3 3)"/><path class="cls-8" d="M650.33,640.47l30.11,10a69.49,69.49,0,0,1-15.09,48.76,119.16,119.16,0,0,0-15.08-58.8Z" transform="translate(3 3)"/><path class="cls-8" d="M808,643.82l22.11.83a68.28,68.28,0,0,1-26,46.87Q806.21,667.66,808,643.82Z" transform="translate(3 3)"/><path class="cls-8" d="M731.46,786.73,750,801.52A139.23,139.23,0,0,0,767.18,760a73.08,73.08,0,0,1-35.72,26.77Z" transform="translate(3 3)"/><path class="cls-8" d="M600.5,645.28c-22.23,50.73-11.25,109,28.17,149.41a18.32,18.32,0,0,0,8,2.1c14.12.32,28.63-17.34,36.84-43.54a68.81,68.81,0,0,1-37.71,26.58,89.16,89.16,0,0,1-8.87-8.16c-22.64-23.83-25.74-53.71-27.83-77.17A210.58,210.58,0,0,1,600.5,645.28Z" transform="translate(3 3)"/><path class="cls-7" d="M356.4,666.76a250.4,250.4,0,0,1-44.38-128c-8.33-11.23-33-47.67-29.47-98a146.94,146.94,0,0,1,25.92-72.82l-25.73-43.52-28.39,6.7c1.84,86.38,17.33,189.15,64.51,295.92q10.68,24.21,22.45,46.43" transform="translate(3 3)"/><path class="cls-10" d="M348.41,684.41c10.2,17.57,22.11,36.35,36.15,55.88,14.44,20.08,28.92,38,42.83,53.77l53.24-54.83-53.24-16.32a122.93,122.93,0,0,0,60.35.84,79.75,79.75,0,0,0-8-50.22A470.43,470.43,0,0,1,570.82,840l40.26,36.9H719.34a213.88,213.88,0,0,0,29.28-46l-8-1.6a65.85,65.85,0,0,1-18.71,15.9c-50.12,28.49-123-19.74-126-21.76q-1.78-11.31-3.55-22.6L536.46,700.37c-20.71-49.73-12.73-98,16.86-118.84,6.24-4.4,17.7-10.61,36.4-11.73l20.41-38.51c-2.06,8.67-10.21,47.33,13.3,75.41,29.27,34.81,98.2,42,157.07,3.35,2.33-19.06-5.67-37.95-21.3-50.23H738.79c-1.94,5-9.23,22.15-28.4,31.81-21.3,10.74-51,9.11-69.87-8.93-20-19.26-21.89-51.44-2.79-74.57a220.36,220.36,0,0,1-92.39,2.31A215.28,215.28,0,0,1,433.53,451h-15l64.79,46,.88,57.76s-22.11,1.6-20.41-2.51-.88-35.16-.88-35.16l-58.58-33.48A101,101,0,0,0,359,519.52C348.91,573.18,376,627,426.51,653.45l50.56-36.9-8-34.32,19.53.84,10.65,34.31L421.18,671C378.82,649.77,347.89,612.71,336,568.9c3.47,49.06,24.81,95.49,60.41,131.41l-33.79-23.44Z" transform="translate(3 3)"/><path class="cls-9" d="M326.23,405.68a136.55,136.55,0,0,0-11.47,62.64l16-31.33Z" transform="translate(3 3)"/><path class="cls-11" d="M348.41,684.41A640.13,640.13,0,0,0,438,804.94" transform="translate(3 3)"/><path class="cls-10" d="M805.86,589.93a42.24,42.24,0,0,0,23,9.18c13.32.93,26.55-5,29.12-10.59.15-.35.58-1.36.92-2.2a96.11,96.11,0,0,0,3.31-9.62c2.56-8.64,3.41-11,4.26-14,1.2-4.61,3.14-14.34,2-30.85-.63,9.24-3.41,24.42-15.31,36.9-1.43,1.49-17.6,18.41-27.35,13.55-7.28-3.62-6.45-17.1-6.33-18.82l-2.82.87Z" transform="translate(3 3)"/><text class="cls-12" transform="matrix(-0.75, -0.66, 0.66, -0.75, 263.6, 896.39)">C</text><text class="cls-12" transform="translate(232.53 869.29) rotate(-134.01)">E</text><text class="cls-12" transform="translate(206.52 842.59) rotate(-128.94)">N</text><text class="cls-12" transform="translate(179.69 809.12) rotate(-124.13)">T</text><text class="cls-12" transform="translate(161.01 781.84) rotate(-119.5)">R</text><text class="cls-12" transform="translate(141.66 747.87) rotate(-114.36)">O</text><text class="cls-12" transform="translate(124.64 709.2) rotate(-110.88)"> </text><text class="cls-12" transform="translate(119.93 698.13) rotate(-107.45)">D</text><text class="cls-12" transform="translate(107.63 658.81) rotate(-102.42)">E</text><text class="cls-12" transform="translate(99.89 622.1) rotate(-99.26)"> </text><text class="cls-12" transform="translate(97.54 610.3) rotate(-95.96)">B</text><text class="cls-12" transform="matrix(-0.02, -1, 1, -0.02, 93.46, 571.96)">A</text><text class="cls-12" transform="matrix(0.06, -1, 1, 0.06, 92.6, 534.49)">C</text><text class="cls-12" transform="matrix(0.16, -0.99, 0.99, 0.16, 95.14, 493.83)">H</text><text class="cls-12" transform="matrix(0.22, -0.98, 0.98, 0.22, 102.11, 452.07)">I</text><text class="cls-12" transform="translate(105.32 436.48) rotate(-74.1)">L</text><text class="cls-12" transform="translate(114.82 403.04) rotate(-69.64)">L</text><text class="cls-12" transform="matrix(0.42, -0.91, 0.91, 0.42, 126.82, 370.49)">E</text><text class="cls-12" transform="translate(142.49 336.63) rotate(-60.11)">R</text><text class="cls-12" transform="translate(162.25 302.18) rotate(-55.05)">A</text><text class="cls-12" transform="matrix(0.63, -0.78, 0.78, 0.63, 183.11, 272.28)">T</text><text class="cls-12" transform="translate(203.58 246.76) rotate(-46.16)">O</text><text class="cls-12" transform="translate(233.18 216.58) rotate(-42.72)"> </text><text class="cls-12" transform="matrix(0.77, -0.64, 0.64, 0.77, 241.87, 208.18)">T</text><text class="cls-12" transform="translate(267.21 186.89) rotate(-35.39)">E</text><text class="cls-12" transform="matrix(0.86, -0.51, 0.51, 0.86, 297.54, 165.19)">C</text><text class="cls-12" transform="translate(333.02 144.29) rotate(-25.04)">N</text><text class="cls-12" transform="translate(371.61 126.23) rotate(-19.64)">O</text><text class="cls-12" transform="translate(411.28 112.22) rotate(-14.71)">L</text><text class="cls-12" transform="matrix(0.99, -0.17, 0.17, 0.99, 444.26, 103.34)">O</text><text class="cls-12" transform="matrix(1, -0.08, 0.08, 1, 485.66, 96.11)">G</text><text class="cls-12" transform="translate(527.95 93.18) rotate(-0.93)">I</text><text class="cls-12" transform="translate(543.77 92.52) rotate(2.72)">C</text><text class="cls-12" transform="translate(584 94.33) rotate(7.87)">O</text><text class="cls-12" transform="translate(625.8 100.56) rotate(11.33)"> </text><text class="cls-12" transform="translate(637.82 102.93) rotate(13.15)">I</text><text class="cls-12" transform="matrix(0.96, 0.29, -0.29, 0.96, 653.37, 106.09)">N</text><text class="cls-12" transform="matrix(0.93, 0.38, -0.38, 0.93, 694.34, 118.56)">D</text><text class="cls-12" transform="translate(732.42 134.18) rotate(27.5)">U</text><text class="cls-12" transform="matrix(0.85, 0.53, -0.53, 0.85, 767.97, 152.77)">S</text><text class="cls-12" transform="matrix(0.8, 0.6, -0.6, 0.8, 798.62, 172.22)">T</text><text class="cls-12" transform="translate(825.22 191.9) rotate(41.39)">R</text><text class="cls-12" transform="translate(854.92 218.54) rotate(44.91)">I</text><text class="cls-12" transform="matrix(0.66, 0.75, -0.75, 0.66, 866.44, 229.48)">A</text><text class="cls-12" transform="matrix(0.6, 0.8, -0.8, 0.6, 892.9, 259.46)">L</text><text class="cls-12" transform="matrix(0.56, 0.83, -0.83, 0.56, 913.61, 287.61)"> </text><text class="cls-12" transform="matrix(0.51, 0.86, -0.86, 0.51, 920.59, 297.46)">Y</text><text class="cls-12" transform="translate(938.38 327.85) rotate(62.19)"> </text><text class="cls-12" transform="translate(944.38 338.25) rotate(65.61)">D</text><text class="cls-12" transform="translate(961.36 375.82) rotate(70.64)">E</text><text class="cls-12" transform="matrix(0.28, 0.96, -0.96, 0.28, 973.47, 411.33)"> </text><text class="cls-12" transform="translate(977.15 422.82) rotate(76.87)">S</text><text class="cls-12" transform="matrix(0.15, 0.99, -0.99, 0.15, 985.25, 457.23)">E</text><text class="cls-12" transform="translate(990.83 494.1) rotate(86.4)">R</text><text class="cls-12" transform="translate(993.28 532.52) rotate(91.09)">V</text><text class="cls-12" transform="translate(992.25 570.53) rotate(94.49)">I</text><text class="cls-12" transform="translate(991.43 586.38) rotate(98.12)">C</text><text class="cls-12" transform="translate(985.19 627.3) rotate(101.78)">I</text><text class="cls-12" transform="translate(982.39 642.91) rotate(105.5)">O</text><text class="cls-12" transform="translate(971.03 683.44) rotate(110.46)">S</text><text class="cls-12" transform="translate(958.32 716.64) rotate(113.51)"> </text><text class="cls-12" transform="translate(953.99 727.85) rotate(117.03)">N</text><text class="cls-12" transform="translate(934.64 765.81) rotate(122.41)">O</text><text class="cls-12" transform="translate(911.65 801.25) rotate(126.04)">.</text><text class="cls-12" transform="translate(902.77 813.42) rotate(127.77)"> </text><text class="cls-12" transform="translate(895.63 823.15) rotate(130.76)">1</text><text class="cls-12" transform="matrix(-0.7, 0.71, -0.71, -0.7, 875.78, 846.44)">2</text><text class="cls-12" transform="matrix(-0.76, 0.66, -0.66, -0.76, 851.17, 871.4)">8</text></svg>