<?xml version="1.0" encoding="utf-8"?>
<!-- Generator: Adobe Illustrator 26.0.0, SVG Export Plug-In . SVG Version: 6.00 Build 0)  -->
<svg version="1.1" id="Layer_1" xmlns="http://www.w3.org/2000/svg" xmlns:xlink="http://www.w3.org/1999/xlink" x="0px" y="0px"
	 viewBox="0 0 1086 1086" style="enable-background:new 0 0 1086 1086;" xml:space="preserve">
<style type="text/css">
	.st0{stroke:#FFFFFF;stroke-width:6;stroke-miterlimit:10;}
	.st1{fill:#303030;stroke:#FFFFFF;stroke-width:6;stroke-miterlimit:10;}
	.st2{fill:#F0A635;}
	.st3{fill:#E9E9EA;}
	.st4{fill:#231F20;}
	.st5{fill:#EF3827;stroke:#231F20;stroke-miterlimit:10;}
	.st6{fill:#F0A635;stroke:#231F20;stroke-miterlimit:10;}
	.st7{fill:#FFFFFF;stroke:#231F20;stroke-miterlimit:10;}
	.st8{fill:#231F20;stroke:#231F20;stroke-miterlimit:10;}
	.st9{fill:#FFFFFF;}
	.st10{fill:none;stroke:#231F20;stroke-miterlimit:10;}
	.st11{font-family:'CopperplateGothic-Bold';}
	.st12{font-size:49.9525px;}
	.st13{fill:none;stroke:#231F20;stroke-width:0.7493;stroke-miterlimit:9.9905;}
	.st14{font-size:50px;}
	.st15{fill:none;stroke:#231F20;stroke-width:0.75;stroke-miterlimit:10;}
	.st16{font-size:50.01px;}
	.st17{fill:none;stroke:#231F20;stroke-width:0.7501;stroke-miterlimit:10.002;}
	.st18{font-size:50.0899px;}
	.st19{fill:none;stroke:#231F20;stroke-width:0.7513;stroke-miterlimit:10.018;}
	.st20{font-size:50.1423px;}
	.st21{fill:none;stroke:#231F20;stroke-width:0.7521;stroke-miterlimit:10.0285;}
	.st22{font-size:50.2195px;}
	.st23{fill:none;stroke:#231F20;stroke-width:0.7533;stroke-miterlimit:10.0439;}
	.st24{font-size:50.1124px;}
	.st25{fill:none;stroke:#231F20;stroke-width:0.7517;stroke-miterlimit:10.0225;}
	.st26{font-size:50.1323px;}
	.st27{fill:none;stroke:#231F20;stroke-width:0.752;stroke-miterlimit:10.0265;}
	.st28{font-size:50.0625px;}
	.st29{fill:none;stroke:#231F20;stroke-width:0.7509;stroke-miterlimit:10.0125;}
	.st30{font-size:49.9925px;}
	.st31{fill:none;stroke:#231F20;stroke-width:0.7499;stroke-miterlimit:9.9985;}
	.st32{font-size:50.2245px;}
	.st33{fill:none;stroke:#231F20;stroke-width:0.7534;stroke-miterlimit:10.0449;}
	.st34{font-size:50.1597px;}
	.st35{fill:none;stroke:#231F20;stroke-width:0.7524;stroke-miterlimit:10.0319;}
	.st36{font-size:50.232px;}
	.st37{fill:none;stroke:#231F20;stroke-width:0.7535;stroke-miterlimit:10.0464;}
	.st38{font-size:50.0849px;}
	.st39{fill:none;stroke:#231F20;stroke-width:0.7513;stroke-miterlimit:10.017;}
	.st40{font-size:50.065px;}
	.st41{fill:none;stroke:#231F20;stroke-width:0.751;stroke-miterlimit:10.013;}
	.st42{font-size:49.8523px;}
	.st43{fill:none;stroke:#231F20;stroke-width:0.7478;stroke-miterlimit:9.9705;}
	.st44{font-size:50.3289px;}
	.st45{fill:none;stroke:#231F20;stroke-width:0.7549;stroke-miterlimit:10.0658;}
</style>
<circle class="st0" cx="543" cy="543" r="540"/>
<circle class="st1" cx="543" cy="543" r="400"/>
<path class="st2" d="M359.4,474l45.3-26l16.9,13l10.6-6.3c31.1,25,102.4,74.2,185.1,62.5c7.6-1.1,15.1-2.7,22.5-4.7
	c-18.3,24.8-14.6,57.3,6.2,75.4c18.8,16.2,47.2,16.8,67.4,6.7c12.7-6.4,22.8-17.1,28.4-30.2l-21.3-10.2l-8-25.9l16.9,19.2l37.3-5.8
	l32.8,9.3l35.9-11.7l-12.9,25.1c-0.2,2.3-1.4,17.1,6.2,20.9c8.8,4.4,23.6-8.8,30.2-16.8c11.3-13.7,12.6-29.6,12.4-38.5
	c1.7-15.8,6.2-74.8-36-117.6c-8.3-8.3-17.6-15.5-27.9-21.3c-4.2-18-11.7-35.2-22.1-50.5c-35-51.7-93.3-67.7-141.2-80.9
	c-23-6.3-116.8-29.9-225.5,2.4c-12.9,3.8-25.7,8.3-38.1,13.5c45.5,13.6,87.8,36.3,124.2,66.9l-145.5-47.7v12.6l76.8,41.9L426,393.6
	L359.4,474z"/>
<path class="st3" d="M729.4,871.5c-56.5,15.6-117.6,1.9-160.6-36l5,10l41.2,36h103.7L729.4,871.5z"/>
<path class="st3" d="M379.6,685.3c18.1,19.4,45.9,25.5,67.6,16s28.2-31.1,29.2-34.5c13.4,18.3,18.6,41.4,14.2,63.6
	c-6.3,1.9-36.3,10.5-68.3-4.2C403.8,717.8,388.7,703.4,379.6,685.3z"/>
<path class="st3" d="M398.2,757.7c2.2,2,5.2,5,8.7,8.8c4,4.4,6.5,7.8,9,11c3.4,4.4,8.3,10.8,14.8,18.7l57.1-53.6l-32.3-7.9
	L398.2,757.7z"/>
<path class="st3" d="M807.6,592c1.7,1.4,15.1,12.3,33.7,9.2c21.3-3.6,29.7-22.3,30.2-23.4c-1.1,19.7-14,36.4-32.1,42.3
	c-19.8,6.4-37.1-3.1-39.8-4.6L807.6,592z"/>
<path class="st3" d="M610.5,564.4c2.7,30.1,16.7,45.8,22.6,51.4c31.5,30.4,94.6,32.2,151.3-2l-3.6-24.7c-3.1,3-40.3,37.7-94,28.9
	C635.6,609.5,612.9,568.8,610.5,564.4z"/>
<path class="st4" d="M430.4,797.1l54-52.7l-54.1-15.9h62.1c1.5-18.1-1.8-36.3-9.7-52.7c19.4,23.2,36.5,48.2,51.3,74.6
	c16.4,29.2,29.7,60,39.7,92l41.2,38.5h104.7c11.1-8.8,20.1-20,26.4-32.7c2.5-5.1,4.5-10.4,6-15.9h-6.7c-5.2,5.6-11.2,10.3-17.9,14
	c-51.2,28.5-122.8-14.9-129.4-19.1l-1.8-20.1l-55.9-104.6c-22.3-43.3-17.4-88.8,9.8-112.2c5.7-4.9,18.6-14.1,41.3-16.8l23.5-41
	c-1.7,7.5-10.3,48.1,15.1,77.2c30,34.4,97.4,40.9,153.5,3.2c2.5-19.9-6.7-39.4-24-51.1c-13.6,2.7-27.7-0.4-39-8.4l-4.4-25.9
	l12.4,20.9l36.4-5l35.5,7.5l37.3-9.2c0.1,4.1-0.8,8.1-2.7,11.7c-3.5,6.3-9.2,11.1-16,13.4c-3.2,7.5-6.5,15-9.8,22.6l-9.8,21.8
	c14.8,13.1,25.4,13,29.6,12.6c22.7-2.7,43.3-38.5,43.1-91.2c17.1,40.6,3.7,87-32.8,113.8c-1.2,25.5-15.4,48.9-38.2,62.8
	c1.2-21.2,2.4-42.4,3.6-63.6c-6.4,0.3-12.8,1.7-18.7,4.2c-34,14.5-49,66-42.5,128.1c12.2-6.5,22.9-15.6,31.1-26.8
	c0.8,19.3-4.5,38.3-15.1,54.4c2.7,2.9,4.8,6.3,6.2,10c8.3,22.2-11.9,53.2-47.9,79.5l-103.8-4.2l-57.8-39.3
	c-6.1-38.8-22.6-75.3-47.9-105.4h-11.5L441,807.9L430.4,797.1z"/>
<path class="st4" d="M429.5,797l54.5-53.3l0.4,1.3l-54.2-16l-5.3-1.6h67.7l-0.9,0.7c1.9-20.1-3.1-40.4-12.6-58.4
	c22.3,26.1,41.8,54.5,58.3,84.6c15.2,27.7,27.6,56.9,37,87.1l41.1,38.5c-3.3-0.3,104.9-0.3,104.1-0.2l-0.5,0.2
	c7.7-6.2,14.4-13.5,20-21.7c5.4-8.1,9.5-17,12.1-26.4l0.8,1h-6.6l0.6-0.3c-9.1,9.9-20.8,17-33.7,20.7c-26.2,7.4-54.2,1.4-79-8
	c-12.5-4.8-24.6-10.7-36.1-17.7v-0.4l-1.8-20.1l0.1,0.3l-50.2-93.9c-5.7-10.4-11.2-21-14.6-32.3c-8.7-27.8-7.9-60.8,11.9-84.4
	c11.6-14.2,30.1-22,48.7-24.1l-0.7,0.4l23.5-41l2.8-5l-1.3,5.5c-9.1,41.1,3.4,82.3,47.7,98.3c39.8,14.4,85.7,4.2,119.5-18.8
	l-0.3,0.6c0.6-4.8,0.5-9.7-0.3-14.4c-2.5-14.7-10.9-27.7-23.3-35.9l0.7,0.1c-13.8,2.8-28.2-0.2-39.7-8.3c-6-8.2-8.2-19-4.1-28.4
	l0.8,1.4l12.4,20.9l-0.9-0.4l36.3-5c3.2-0.6,6.5-0.5,9.6,0.5c8.9,1.9,17.7,4.2,26.3,7.1h-0.4c5.6-3.1,11.6-5.7,17.8-7.5
	c6.8-2,13.4-4.7,20.5-1.2v0.3c0.1,11.6-7.6,22-19.2,25.9l0.5-0.5l-9.6,22.2l-9.9,22.1l-0.2-0.9c8.5,7.3,20,14.8,31.9,11.8
	s19.6-13.3,25-23c11-20.5,14.3-44,14.3-66.8v-4.3l1.7,4c17.5,41,2.6,89.4-32.8,114.2c-1.3,26.3-16.2,50.3-40,64.3l0.1-1.6l3.6-63.7
	l0.9,0.8c-10.4,0.4-20.5,4-28.8,10.2c-33.7,27-35.3,82.5-31.6,121.1l-1.3-0.6c12.1-6.4,22.6-15.5,30.8-26.5l1.5-2
	c1.3,20.2-4,40.3-15.1,57.2v-0.9c3.2,3.4,5.6,7.6,6.9,12.1l0.5,1.7l0.2,0.8c1.3,8.3,0.1,16.9-3.4,24.5
	c-9.5,21.2-27.5,37.8-46.3,51.8c-0.3,0.1-103.8-4.3-104.1-4.2h-0.3l-0.2-0.1l-57.8-39.3c-6.5-38-22.4-75.2-48.1-105.6l0.7,0.3h-11.5
	c2.5-1.8-55.7,61.9-55.3,61.7l-0.6,0.7C437.1,805.2,433.3,801.2,429.5,797L429.5,797z M431.2,797c3.6,3.5,7,6.8,10.4,10.3h-1.3
	l56.1-62.2h12.3l0.2,0.3c25,29.6,43.5,69.9,47.8,105.3l57.7,39.3l-0.5-0.2c-0.4-0.3,105.9,4.2,103.3,4.4
	c18.5-13.8,36.1-30.2,45.5-50.9c5.4-12.6,6.1-26.7-3.9-37.5l-0.4-0.4l0.3-0.5c10.5-16,15.7-34.9,15-54l1.5,0.4
	c-8.5,11.6-19.6,21.1-32.3,27.7c-2.8-27-2.5-54.7,5.3-81c7.4-26.1,26-52.8,57.5-53.4v0.9l-3.5,63.6l-1.3-0.7
	c22.5-13.8,36.5-36.9,37.8-62.2V646l0.3-0.2c35.8-26.1,49.6-73.3,32.6-112.9l1.7-0.3c0,23.1-3.4,46.7-14.5,67.6
	c-14.7,26.3-35.7,33.3-59.7,11.7l-0.4-0.4l0.2-0.5c5-10.9,14.8-33.3,19.5-44.4l0.1-0.3l0.3-0.1c10.7-3.6,18.6-13.5,18.1-24.3
	l1.1,0.8l0,0c-4.7,5.7-11.2,6-17.8,7.5c-6.5,1.3-13.2,1.8-19.8,1.7c-6.1-0.5-12.1-1.5-18.1-2.5c-3-0.5-6-1.1-8.9-1.7
	c-3.1-0.3-6-1.4-8.5-3.2c1.8-0.2-36.5,5.1-36.1,5l-0.6,0.1l-0.3-0.5l-12.4-20.9l1.6-0.5c5.5,7.4,7.2,17.1,4.4,25.9l-0.3-0.5l0,0
	c11.2,7.9,25.2,10.9,38.7,8.2c17.6,11.8,27,31.7,24.6,52v0.4l-0.3,0.2c-17.6,11.9-37.4,19.9-58.3,23.7c-40.8,7.8-91.8-5.9-108-45.4
	c-7.8-18.8-8.1-39.8-3.8-59.4l1.6,0.6l-23.5,41l-0.2,0.4c-25.5,2.5-47.3,15.8-57.4,38.3c-11,24.2-8.7,52.1,0.8,76.4
	c5.9,15.2,20.7,40.2,28.3,55.1c0.2,0.2,33.5,62.6,33.5,62.9l1.7,20.1l-0.4-0.6c41.9,25.3,107.8,46.4,146.3,5.2l0.3-0.3h8.1l-0.3,1
	c-5.4,19.4-16.9,36.5-32.7,49l-0.2,0.2H614.5l-0.2-0.2l-41.2-38.5l-0.2-0.1v-0.2c-19.2-60.9-50.1-117.4-90.9-166.4l1.4-0.8
	c7.9,16.5,11.3,34.9,9.8,53.1v0.8h-62.9l0.2-1.6l54.1,15.9l1.3,0.4l-1,0.9L431.2,797L431.2,797z"/>
<path class="st5" d="M647.7,643l-25.7-11.8c-4.6,13.2-7.5,27-8.6,41c-3.6,47.7,15.4,85,26.4,102.9c6.6-2.6,12.8-5.9,18.6-10
	c9.2-6.5,17.1-14.7,23.1-24.3c0.6,3.5,5.1,33.8-17,53.3c-6.6,5.7-14.4,9.8-22.9,12c1.1,5.6,2.3,11.2,3.6,16.7
	c4.3,1.7,9.2,1.4,13.3-0.8c2.9-1.7,5.1-4.4,6.2-7.5l67.4,1.7c5.9-1,9.9-6.4,8.8-12c-0.3-1.4-0.9-2.7-1.7-3.9l-49.7-12.5l40.8-1.6
	l5.3-9.2c-11.3-43.7-4-90.1,20.4-128.1l-67,4.2c1,21.4-6.5,42.3-21,58.2H661C663.1,687.7,658.5,664.1,647.7,643z"/>
<path class="st4" d="M351.4,687.4l15.1-6.7l32.8,30.5c-35.8-39-57.2-87.8-61.2-139.3c12.3,43,43.1,79.1,85,99.6l79-51.1l-9.8-34.3
	l-21.3,0.8l7.1,28.5l-47.9,37.7c-52.5-23-81.1-77.2-69.2-130.6l45.3-35.2l59.5,34.3l0.9,32.6l19.5,2.5v-58.6L405.5,448l-46.1,28.5
	l67.4-87.9l13.4-37.7l-79.9-47.7l-4.4-9.2l146.4,48.5c-8.4-8.4-17.6-16-27.5-22.5c-19.3-12.7-32.3-15.6-62.1-30.1
	c-13.2-6.4-23.6-12.2-30.2-15.9c47.2-17.2,97-26.2,147.2-26.6c21-0.1,211.3,0.9,263.3,105.5c6.2,12.6,10.2,26.1,11.9,40
	c3,0.6,6,1.4,8.9,2.5c52.3,19.5,57.7,110.4,58.6,132.3c8.3-28.4,5.4-59-8-85.4c12.3-41.5,6.3-57.6-1.8-64.4
	c-4.5-3.9-13.8-8.3-29.3-20.9c-4.7-3.8-8.3-7.1-10.7-9.2c1.2-9.2,9.3-73.2-14.9-82.6c-1.5-0.6-3.1-0.9-4.7-1.1
	c-21.8,9.2-45.9,11.8-69.2,7.5c-123-48.7-259.2-53.1-385.1-12.6c-15.7-10.5-34.3-15.8-53.2-15.1c-1.4,5.8-2.7,11.8-3.9,18
	c-4.1,21.6-6,43.6-5.9,65.6l25.8,43.6c-14.5,20.8-23.4,45-25.7,70.3c-4.5,51.5,20.9,89.1,29.3,100.5c2.7,45.9,18.1,90.2,44.4,128
	l-15.1,6.7L351.4,687.4z"/>
<path class="st4" d="M351.7,686.6c5-2.4,10-4.7,15-6.9l0.4,0.4l32.8,30.5l-1.2,1.1c-13.2-14.5-24.7-30.5-34.1-47.7
	c-15.5-28.4-24.7-59.8-27.2-92l1.7-0.3c12.3,42.8,43,78.7,84.8,99.1c-4.8,1.9,79.6-51.6,78.1-51l-0.3,0.9l-9.9-34.2l0.9,0.6
	l-21.3,0.8l0.8-1l7.1,28.4l0.1,0.5l-0.4,0.3l-47.9,37.7l-0.4,0.3l-0.5-0.2c-38.3-16.8-66.3-52.4-71.3-92
	c-1.6-13.1-1.5-27.1,1.9-39.9l45.3-35.1l0.5-0.4l0.5,0.3l59.5,34.2l0.4,0.2v0.4l0.9,32.7l-0.7-0.8l19.5,2.5l-1,0.8v-58.6
	c2.6,2.9-80.9-50.3-80.4-49.6h0.9l-46.1,28.5l-3.8,2.3l2.6-3.5c0.1,0.3,67.6-89.7,66.7-87.9c0,0,14-37.4,14-37.5l0.4,0.9l-79.9-47.7
	l-0.2-0.1l-0.1-0.2l-4.4-9.2l-0.8-1.7l1.9,0.6l146.4,48.5l-0.9,1.3c-12.7-11.4-27-21.1-42.3-28.7c-26.5-12.6-56.3-21.2-78.5-40.8
	c39.2-14.3,80.2-23.1,121.9-26.1c56.8-3.4,113.8,2.7,168.6,18.1c66,19.3,125.8,57.6,134.4,127.1L805,392c7.1,1,13.9,3.4,20.1,7.1
	c38.8,24.4,47,87.7,48,128.3l0,0l-1.7-0.2c8.5-28.2,4.9-59-8-85.4c4.8-17.4,13-47,0-62.1c-5.3-5.1-12.3-8.4-18.2-12.8
	c-8.1-5.8-15.9-12.1-23.3-18.9l-0.3-0.2v-0.4c1-7.6,1.7-15.2,2-22.9c0.5-16.3,1.7-57.2-20.8-59.9c-19.5,8.9-46.6,11.9-69.3,7.5
	c-30.4-12-61.8-21.4-93.8-28.1c-96.3-20.5-198.5-13.9-291.7,15.4c-7.7-5.1-16.1-9-25-11.6c-8.9-2.5-18.2-3.6-27.5-3.3l0.8-0.6
	c-6.6,27.3-9.9,55.4-9.7,83.5l-0.1-0.4l25.7,43.5l0.2,0.4l-0.3,0.4c-18.1,25.8-27.2,56.8-26,88.2c0.5,10.3,2.2,20.6,4.9,30.6
	c5,18.5,13.5,35.8,24.8,51.2c2.7,45.9,18,90.1,44.2,127.9l0.5,0.8l-0.9,0.4l-15.1,6.7l0.3-1.2c2.3,3.5,4.4,7,6.6,10.5L351.7,686.6z
	 M351.2,688.2c-2.7-3.9-5.5-8-8.1-12l0.9-0.4l15-6.7l-0.4,1.2c-26.2-37.5-42.5-84.8-44.4-128.1c-11.4-15.5-19.8-33-24.9-51.6
	c-2.7-10.1-4.4-20.5-4.9-30.9c-1.2-31.8,8-63.1,26.3-89.1v0.8c0-0.1-25.8-43.6-25.9-43.7c-0.1-14.2,0.6-28.4,2.2-42.5
	c1.8-14.2,4.3-28.3,7.7-42.3c19.3-0.8,38.3,4.5,54.4,15.2c89.2-30.2,196-35.8,291.1-15.6c32,6.6,63.4,16,93.7,28
	c23.3,4.2,47.3,1.6,69.1-7.5c17.9,2.2,20.7,24.8,22.1,38.4c1,15.4,0.4,30.9-1.8,46.2l-0.3-0.7c3.8,3.2,7.5,6.5,11.3,9.6
	c7.8,6.3,15.9,12.1,24.4,17.4c14.3,8.2,14.3,26.1,12.5,40c-1.3,9.6-3.4,19.1-6.2,28.4v-0.5c13.4,26.6,16.3,57.3,8,85.9l-1.4,4.7
	c0,0-0.3-4.9-0.3-4.9c-3-40.6-11-100.1-48.2-125.7c-5.7-3.8-11.9-6.6-18.5-8.3l-0.6-0.2l-0.1-0.5l0,0c-3.9-31.6-20-60.7-45.4-81.7
	c-28.9-24.2-65.6-38.8-102.6-48.2c-50-12.3-101.6-17-153.1-14c-41,3-81.4,11.6-120.1,25.6c0,0,0.1-1.5,0.1-1.5
	c22.1,7.8,42.1,19.2,63.6,28.3c21.6,9,40.9,22.9,56.3,40.5l2,2.2l-2.9-0.9l-146.4-48.6l1.1-1.1l4.4,9.2
	c-2.1-1.8,80.1,47.9,79.5,47.4l0.6,0.3l-0.2,0.6c0,0.2-12.7,37.9-12.7,38.1s-68.1,87.6-68.3,87.8c0,0-1.2-1.1-1.1-1.1l46.1-28.5
	l0.5-0.3c0.2,0.2,80.9,50.3,81.2,50.5l0.4,0.2v59.9l-1-0.1l-19.5-2.5l-0.7-0.1v-0.7l-0.9-32.7l0.4,0.7L405.9,488h1l-45.2,35.1
	c-8,39.4,5.3,80.1,35.1,107c10,9.2,21.5,16.7,33.9,22.2l-0.9,0.1l47.9-37.7l-0.3,0.8l-7.1-28.4l-0.2-1h1l21.3-0.8h0.7l0.2,0.6
	l9.8,34.2l0.1,0.5l-0.5,0.3l-79,51.1l-0.4,0.3l-0.5-0.2c-42.1-20.6-73.2-56.9-85.6-100.1l1.7-0.3c3.9,51.3,25.3,100,61,138.9
	l-1.2,1.1l-32.8-30.5l1,0.2C361.7,683.8,356.4,686,351.2,688.2L351.2,688.2z"/>
<path class="st6" d="M762.3,291.5l55.9,69.5c-0.2-50.8-4.8-77-13.8-78.4c-1.7-0.2-3.5,0.3-4.9,1.4L762.3,291.5z"/>
<path class="st7" d="M307,252.2c-19.6,59.6,6.3,124.2,62.9,156.5c13.4-6.3,23.1-18.3,26.6-32.7c-34.9-16.5-62.8-43.6-79.2-77v-22.6
	L307,252.2z"/>
<path class="st7" d="M325.6,383.6c-7.2,10-34.7,50.2-22.9,98.1c3,11.9,8,23.2,14.8,33.3l31.2-75l-4.4-39.8L325.6,383.6z"/>
<path class="st8" d="M627.3,422.9c7.9,15.8,20.2,28.9,35.5,37.7v12.5c23.3-0.2,45.9,7.8,63.9,22.6c-9.1-2.1-18.3-3.8-27.5-5
	c-21.9-3-33.7-4.5-46.9-1.1c-7.1,1.9-20.5,6.7-33.8,21.2l17.7-24.3l-23.2,10.9l26.8-22.6L629.2,458l-48.1-8.8l-46.9-30.6
	c14.4-4.2,29.6-5.1,44.4-2.4c25,4.8,43.7,20,48.8,15.1C629.3,429.4,628.3,425.4,627.3,422.9z"/>
<path class="st7" d="M588.3,431.3v12.5l34.6,5.5C614.8,438.2,602.1,431.6,588.3,431.3z"/>
<path class="st8" d="M449,346.7l23.1,5.9l-11.5,56.1c18.4,6.8,35,17.6,48.5,31.8c2.6,2.8,5.1,5.7,7.4,8.8l24.8-13.8l21.4,13.8
	l-56.8,27.2l-75.4-53.6C431.2,396.5,437.5,370.5,449,346.7L449,346.7z"/>
<path class="st8" d="M500.5,397v-18.5c5.3-9.8,12.9-18.1,22.2-24.3c4.7-3.1,9.8-5.6,15.1-7.5l16.9,7.5c0.9,7.8,1.8,15.6,2.7,23.4
	c-4.5,1.4-9,3.1-13.3,5c-10.7,4.8-20.6,11.4-29.3,19.3L500.5,397z"/>
<path class="st8" d="M500.5,321.7l12.4,8.7l44.4-8.7l48.3,25c0.8,4.1,1.2,8.3,1.4,12.6c0.4,12.3-1.7,24.5-6.2,36L613,402l9.9-55.3
	c-18.8-17.5-41.2-30.6-65.7-38.5C537.4,307,517.7,311.7,500.5,321.7L500.5,321.7z"/>
<path class="st8" d="M841.2,501.6L795.1,458l23.1-4.2l8-13.9l15.1-8.7c-14.6-6.2-30.5-5.1-40.9,3.2c-4.7,3.8-8.3,9-10.1,14.8
	c-10-11-14.4-26-11.9-40.6c-3.3,2.6-6,5.7-8.1,9.3c-3.7,6.7-4.9,14.6-3.4,22.1c6.2,11.7,14.3,22.3,23.8,31.5
	C805.1,485.1,822.4,495.4,841.2,501.6z"/>
<path class="st7" d="M796.8,448.1c6-5.4,13.4-9,21.3-10.3c0.7,4.5-1.4,8.9-5.2,11.2c-3.2,2-7,2.7-10.7,1.9
	C800.2,450.5,798.3,449.5,796.8,448.1z"/>
<path class="st8" d="M638,287.7c4.7,1.4,8.7,4.4,11.5,8.4c1,1.4,1.7,3,2.2,4.6l18.2-4.6C661.3,288.3,649.4,285.2,638,287.7z"/>
<path class="st8" d="M468.5,279.4l12.5,7.1l5.2,3l25.4-12.1C497.6,272.2,482.1,272.9,468.5,279.4L468.5,279.4z"/>
<path class="st8" d="M486.3,308l42.5-14.3c1.3-1.9,1.2-4.4-0.5-6.1c-0.8-0.6-1.7-0.9-2.7-0.8l-39.5,10.6L430.3,276
	c41.6-9.2,84.3-12.5,126.9-10l-6.2,8c1,1.9,2.8,3.3,4.9,3.8c1.2,0.2,2.4,0,3.5-0.4c1-0.6,8.7-5.7,9-14.2c0.1-2.8-0.6-5.6-1.9-8
	c-53.6-3.3-107.4,2.4-159.2,16.8v6.3L486.3,308z"/>
<path class="st8" d="M643.8,323.7l43.9-7.5c0.6-1.5,0.6-3.1,0-4.6c-0.8-1.7-2.2-3-4-3.5l-37.7,5.5L592.3,278
	c12.2-2.7,24.8-3.7,37.3-2.9c24.2,1.7,47.5,10,67.4,23.9c2,1.1,4.4,0.9,6.2-0.4c2.1-1.9,2.2-5.2,0.3-7.3c-0.1-0.1-0.2-0.2-0.3-0.3
	c-12.2-8.4-50.2-32.2-97.1-25.1c-9.6,1.5-19,4.2-27.9,8c-0.6,1.6-1.2,3.4-1.8,5L643.8,323.7z"/>
<path class="st8" d="M394,535l16.9-10.5l22.6,15.1c0.1,11.8,0.8,23.5,2.2,35.2c1.2,10.2,3,20.4,5.3,30.5l-13.3,6.3
	c-8-6.7-14.9-14.6-20.4-23.5C397.7,572,393.1,553.6,394,535z"/>
<path class="st7" d="M653.3,643.5l30.1,10c1.3,17.6-4.1,35-15.1,48.8C668.5,681.7,663.3,661.4,653.3,643.5L653.3,643.5z"/>
<path class="st7" d="M811,646.8l22.1,0.8c-1.9,18.5-11.3,35.4-26,46.9C808.5,678.6,809.8,662.7,811,646.8z"/>
<path class="st7" d="M734.5,789.7l18.5,14.8c7.9-12.8,13.7-26.8,17.2-41.5C761.4,775.4,748.9,784.8,734.5,789.7L734.5,789.7z"/>
<path class="st7" d="M603.5,648.3c-22.2,50.7-11.2,109,28.2,149.4c2.5,1.3,5.2,2,8,2.1c14.1,0.3,28.6-17.3,36.8-43.5
	c-9.1,12.9-22.5,22.3-37.7,26.6c-3.1-2.5-6.1-5.2-8.9-8.2c-22.6-23.8-25.7-53.7-27.8-77.2C600.6,681.1,601.1,664.6,603.5,648.3z"/>
<path class="st6" d="M359.4,669.8c-26.3-37.8-41.6-82.1-44.4-128c-8.3-11.2-33-47.7-29.5-98c2-26.2,10.9-51.3,25.9-72.8l-25.7-43.5
	l-28.4,6.7c1.8,86.4,17.3,189.1,64.5,295.9c7.1,16.1,14.6,31.6,22.5,46.4"/>
<path class="st9" d="M351.4,687.4c10.2,17.6,22.1,36.3,36.1,55.9c14.4,20.1,28.9,38,42.8,53.8l53.2-54.8l-53.2-16.3
	c19.7,5.3,40.5,5.6,60.4,0.8c2.9-17.2,0.1-34.8-8-50.2c41.4,48.7,72.3,105.4,91.1,166.5l40.3,36.9h108.3c11.7-14,21.5-29.5,29.3-46
	l-8-1.6c-5.2,6.4-11.5,11.8-18.7,15.9c-50.1,28.5-123-19.7-126-21.8c-1.2-7.5-2.4-15.1-3.5-22.6l-55.9-100.5
	c-20.7-49.7-12.7-98,16.9-118.8c6.2-4.4,17.7-10.6,36.4-11.7l20.4-38.5c-2.1,8.7-10.2,47.3,13.3,75.4c29.3,34.8,98.2,42,157.1,3.3
	c2.3-19.1-5.7-38-21.3-50.2h-20.4c-1.9,5-9.2,22.2-28.4,31.8c-21.3,10.7-51,9.1-69.9-8.9c-20-19.3-21.9-51.4-2.8-74.6
	c-30.3,7.3-61.8,8.1-92.4,2.3C506,505.3,467,484.6,436.5,454h-15l64.8,46l0.9,57.8c0,0-22.1,1.6-20.4-2.5s-0.9-35.2-0.9-35.2
	l-58.6-33.5c-18.3,7.3-34,19.8-45.3,35.9c-10.1,53.7,17,107.5,67.5,133.9l50.6-36.9l-8-34.3l19.5,0.8l10.6,34.3L424.2,674
	c-42.4-21.2-73.3-58.3-85.2-102.1c3.5,49.1,24.8,95.5,60.4,131.4l-33.8-23.4L351.4,687.4z"/>
<path class="st8" d="M329.2,408.7c-8.7,19.7-12.6,41.1-11.5,62.6l16-31.3L329.2,408.7z"/>
<path class="st10" d="M351.4,687.4c25,43.6,55.1,84,89.6,120.5"/>
<path class="st9" d="M808.9,592.9c6.6,5.3,14.6,8.5,23,9.2c13.3,0.9,26.5-5,29.1-10.6c0.2-0.3,0.6-1.4,0.9-2.2
	c1.3-3.1,2.4-6.4,3.3-9.6c2.6-8.6,3.4-11,4.3-14c1.2-4.6,3.1-14.3,2-30.8c-0.6,9.2-3.4,24.4-15.3,36.9c-1.4,1.5-17.6,18.4-27.3,13.5
	c-7.3-3.6-6.5-17.1-6.3-18.8l-2.8,0.9L808.9,592.9z"/>
<text transform="matrix(-0.7507 -0.6606 0.6606 -0.7507 263.6004 896.392)" class="st9 st11 st12">C</text>
<text transform="matrix(-0.7507 -0.6606 0.6606 -0.7507 263.6004 896.392)" class="st13 st11 st12">C</text>
<text transform="matrix(-0.6948 -0.7192 0.7192 -0.6948 232.5301 869.29)" class="st9 st11 st14">E</text>
<text transform="matrix(-0.6948 -0.7192 0.7192 -0.6948 232.5301 869.29)" class="st15 st11 st14">E</text>
<text transform="matrix(-0.6285 -0.7778 0.7778 -0.6285 206.5201 842.5898)" class="st9 st11 st14">N</text>
<text transform="matrix(-0.6285 -0.7778 0.7778 -0.6285 206.5201 842.5898)" class="st15 st11 st14">N</text>
<text transform="matrix(-0.5611 -0.8278 0.8278 -0.5611 179.69 809.1208)" class="st9 st11 st14">T</text>
<text transform="matrix(-0.5611 -0.8278 0.8278 -0.5611 179.69 809.1208)" class="st15 st11 st14">T</text>
<text transform="matrix(-0.4924 -0.8704 0.8704 -0.4924 161.0099 781.84)" class="st9 st11 st14">R</text>
<text transform="matrix(-0.4924 -0.8704 0.8704 -0.4924 161.0099 781.84)" class="st15 st11 st14">R</text>
<text transform="matrix(-0.4125 -0.911 0.911 -0.4125 141.66 747.871)" class="st9 st11 st14">O</text>
<text transform="matrix(-0.4125 -0.911 0.911 -0.4125 141.66 747.871)" class="st15 st11 st14">O</text>
<text transform="matrix(-0.2999 -0.954 0.954 -0.2999 119.93 698.1292)" class="st9 st11 st14">D</text>
<text transform="matrix(-0.2999 -0.954 0.954 -0.2999 119.93 698.1292)" class="st15 st11 st14">D</text>
<text transform="matrix(-0.2151 -0.9766 0.9766 -0.2151 107.63 658.8098)" class="st9 st11 st14">E</text>
<text transform="matrix(-0.2151 -0.9766 0.9766 -0.2151 107.63 658.8098)" class="st15 st11 st14">E</text>
<text transform="matrix(-0.1038 -0.9946 0.9946 -0.1038 97.54 610.2996)" class="st9 st11 st14">B</text>
<text transform="matrix(-0.1038 -0.9946 0.9946 -0.1038 97.54 610.2996)" class="st15 st11 st14">B</text>
<text transform="matrix(-1.999600e-02 -0.9998 0.9998 -1.999600e-02 93.4609 571.9597)" class="st9 st11 st16">A</text>
<text transform="matrix(-1.999600e-02 -0.9998 0.9998 -1.999600e-02 93.4609 571.9597)" class="st17 st11 st16">A</text>
<text transform="matrix(5.989229e-02 -0.9982 0.9982 5.989229e-02 92.5998 534.4904)" class="st9 st11 st18">C</text>
<text transform="matrix(5.989229e-02 -0.9982 0.9982 5.989229e-02 92.5998 534.4904)" class="st19 st11 st18">C</text>
<text transform="matrix(0.1595 -0.9872 0.9872 0.1595 95.1408 493.83)" class="st9 st11 st20">H</text>
<text transform="matrix(0.1595 -0.9872 0.9872 0.1595 95.1408 493.83)" class="st21 st11 st20">H</text>
<text transform="matrix(0.219 -0.9757 0.9757 0.219 102.1097 452.0701)" class="st9 st11 st22">I</text>
<text transform="matrix(0.219 -0.9757 0.9757 0.219 102.1097 452.0701)" class="st23 st11 st22">I</text>
<text transform="matrix(0.274 -0.9617 0.9617 0.274 105.32 436.4802)" class="st9 st11 st14">L</text>
<text transform="matrix(0.274 -0.9617 0.9617 0.274 105.32 436.4802)" class="st15 st11 st14">L</text>
<text transform="matrix(0.3479 -0.9375 0.9375 0.3479 114.8199 403.0404)" class="st9 st11 st14">L</text>
<text transform="matrix(0.3479 -0.9375 0.9375 0.3479 114.8199 403.0404)" class="st15 st11 st14">L</text>
<text transform="matrix(0.4191 -0.908 0.908 0.4191 126.8197 370.4899)" class="st9 st11 st24">E</text>
<text transform="matrix(0.4191 -0.908 0.908 0.4191 126.8197 370.4899)" class="st25 st11 st24">E</text>
<text transform="matrix(0.4983 -0.867 0.867 0.4983 142.49 336.6303)" class="st9 st11 st14">R</text>
<text transform="matrix(0.4983 -0.867 0.867 0.4983 142.49 336.6303)" class="st15 st11 st14">R</text>
<text transform="matrix(0.5729 -0.8197 0.8197 0.5729 162.25 302.18)" class="st9 st11 st14">A</text>
<text transform="matrix(0.5729 -0.8197 0.8197 0.5729 162.25 302.18)" class="st15 st11 st14">A</text>
<text transform="matrix(0.6283 -0.7779 0.7779 0.6283 183.109 272.2801)" class="st9 st11 st26">T</text>
<text transform="matrix(0.6283 -0.7779 0.7779 0.6283 183.109 272.2801)" class="st27 st11 st26">T</text>
<text transform="matrix(0.6926 -0.7213 0.7213 0.6926 203.58 246.76)" class="st9 st11 st14">O</text>
<text transform="matrix(0.6926 -0.7213 0.7213 0.6926 203.58 246.76)" class="st15 st11 st14">O</text>
<text transform="matrix(0.769 -0.6392 0.6392 0.769 241.8701 208.1794)" class="st9 st11 st28">T</text>
<text transform="matrix(0.769 -0.6392 0.6392 0.769 241.8701 208.1794)" class="st29 st11 st28">T</text>
<text transform="matrix(0.8152 -0.5791 0.5791 0.8152 267.2099 186.8902)" class="st9 st11 st14">E</text>
<text transform="matrix(0.8152 -0.5791 0.5791 0.8152 267.2099 186.8902)" class="st15 st11 st14">E</text>
<text transform="matrix(0.8601 -0.5101 0.5101 0.8601 297.5403 165.1905)" class="st9 st11 st30">C</text>
<text transform="matrix(0.8601 -0.5101 0.5101 0.8601 297.5403 165.1905)" class="st31 st11 st30">C</text>
<text transform="matrix(0.906 -0.4233 0.4233 0.906 333.0199 144.29)" class="st9 st11 st14">N</text>
<text transform="matrix(0.906 -0.4233 0.4233 0.906 333.0199 144.29)" class="st15 st11 st14">N</text>
<text transform="matrix(0.9418 -0.3361 0.3361 0.9418 371.61 126.2299)" class="st9 st11 st14">O</text>
<text transform="matrix(0.9418 -0.3361 0.3361 0.9418 371.61 126.2299)" class="st15 st11 st14">O</text>
<text transform="matrix(0.9672 -0.2539 0.2539 0.9672 411.28 112.2199)" class="st9 st11 st14">L</text>
<text transform="matrix(0.9672 -0.2539 0.2539 0.9672 411.28 112.2199)" class="st15 st11 st14">L</text>
<text transform="matrix(0.9856 -0.1692 0.1692 0.9856 444.26 103.3395)" class="st9 st11 st32">O</text>
<text transform="matrix(0.9856 -0.1692 0.1692 0.9856 444.26 103.3395)" class="st33 st11 st32">O</text>
<text transform="matrix(0.9968 -7.974522e-02 7.974522e-02 0.9968 485.6605 96.1109)" class="st9 st11 st34">G</text>
<text transform="matrix(0.9968 -7.974522e-02 7.974522e-02 0.9968 485.6605 96.1109)" class="st35 st11 st34">G</text>
<text transform="matrix(0.9999 -1.623085e-02 1.623085e-02 0.9999 527.95 93.18)" class="st9 st11 st14">I</text>
<text transform="matrix(0.9999 -1.623085e-02 1.623085e-02 0.9999 527.95 93.18)" class="st15 st11 st14">I</text>
<text transform="matrix(0.9989 4.745513e-02 -4.745513e-02 0.9989 543.77 92.52)" class="st9 st11 st14">C</text>
<text transform="matrix(0.9989 4.745513e-02 -4.745513e-02 0.9989 543.77 92.52)" class="st15 st11 st14">C</text>
<text transform="matrix(0.9906 0.1369 -0.1369 0.9906 584 94.33)" class="st9 st11 st14">O</text>
<text transform="matrix(0.9906 0.1369 -0.1369 0.9906 584 94.33)" class="st15 st11 st14">O</text>
<text transform="matrix(0.9738 0.2275 -0.2275 0.9738 637.8199 102.9299)" class="st9 st11 st14">I</text>
<text transform="matrix(0.9738 0.2275 -0.2275 0.9738 637.8199 102.9299)" class="st15 st11 st14">I</text>
<text transform="matrix(0.9573 0.2892 -0.2892 0.9573 653.3696 106.0894)" class="st9 st11 st20">N</text>
<text transform="matrix(0.9573 0.2892 -0.2892 0.9573 653.3696 106.0894)" class="st21 st11 st20">N</text>
<text transform="matrix(0.9257 0.3782 -0.3782 0.9257 694.3402 118.56)" class="st9 st11 st36">D</text>
<text transform="matrix(0.9257 0.3782 -0.3782 0.9257 694.3402 118.56)" class="st37 st11 st36">D</text>
<text transform="matrix(0.887 0.4617 -0.4617 0.887 732.4199 134.1799)" class="st9 st11 st14">U</text>
<text transform="matrix(0.887 0.4617 -0.4617 0.887 732.4199 134.1799)" class="st15 st11 st14">U</text>
<text transform="matrix(0.8486 0.5291 -0.5291 0.8486 767.9696 152.7702)" class="st9 st11 st38">S</text>
<text transform="matrix(0.8486 0.5291 -0.5291 0.8486 767.9696 152.7702)" class="st39 st11 st38">S</text>
<text transform="matrix(0.8 0.6 -0.6 0.8 798.6201 172.22)" class="st9 st11 st14">T</text>
<text transform="matrix(0.8 0.6 -0.6 0.8 798.6201 172.22)" class="st15 st11 st14">T</text>
<text transform="matrix(0.7502 0.6612 -0.6612 0.7502 825.2204 191.9)" class="st9 st11 st14">R</text>
<text transform="matrix(0.7502 0.6612 -0.6612 0.7502 825.2204 191.9)" class="st15 st11 st14">R</text>
<text transform="matrix(0.7082 0.706 -0.706 0.7082 854.9199 218.5399)" class="st9 st11 st14">I</text>
<text transform="matrix(0.7082 0.706 -0.706 0.7082 854.9199 218.5399)" class="st15 st11 st14">I</text>
<text transform="matrix(0.6606 0.7507 -0.7507 0.6606 866.4404 229.4802)" class="st9 st11 st12">A</text>
<text transform="matrix(0.6606 0.7507 -0.7507 0.6606 866.4404 229.4802)" class="st13 st11 st12">A</text>
<text transform="matrix(0.6 0.8 -0.8 0.6 892.8999 259.46)" class="st9 st11 st14">L</text>
<text transform="matrix(0.6 0.8 -0.8 0.6 892.8999 259.46)" class="st15 st11 st14">L</text>
<text transform="matrix(0.5101 0.8601 -0.8601 0.5101 920.5898 297.4606)" class="st9 st11 st30">Y</text>
<text transform="matrix(0.5101 0.8601 -0.8601 0.5101 920.5898 297.4606)" class="st31 st11 st30">Y</text>
<text transform="matrix(0.4129 0.9108 -0.9108 0.4129 944.3798 338.2501)" class="st9 st11 st14">D</text>
<text transform="matrix(0.4129 0.9108 -0.9108 0.4129 944.3798 338.2501)" class="st15 st11 st14">D</text>
<text transform="matrix(0.3315 0.9435 -0.9435 0.3315 961.3597 375.82)" class="st9 st11 st14">E</text>
<text transform="matrix(0.3315 0.9435 -0.9435 0.3315 961.3597 375.82)" class="st15 st11 st14">E</text>
<text transform="matrix(0.2272 0.9739 -0.9739 0.2272 977.1495 422.8201)" class="st9 st11 st14">S</text>
<text transform="matrix(0.2272 0.9739 -0.9739 0.2272 977.1495 422.8201)" class="st15 st11 st14">S</text>
<text transform="matrix(0.1498 0.9887 -0.9887 0.1498 985.251 457.2301)" class="st9 st11 st40">E</text>
<text transform="matrix(0.1498 0.9887 -0.9887 0.1498 985.251 457.2301)" class="st41 st11 st40">E</text>
<text transform="matrix(6.279049e-02 0.998 -0.998 6.279049e-02 990.8304 494.1)" class="st9 st11 st14">R</text>
<text transform="matrix(6.279049e-02 0.998 -0.998 6.279049e-02 990.8304 494.1)" class="st15 st11 st14">R</text>
<text transform="matrix(-1.902288e-02 0.9998 -0.9998 -1.902288e-02 993.2808 532.52)" class="st9 st11 st14">V</text>
<text transform="matrix(-1.902288e-02 0.9998 -0.9998 -1.902288e-02 993.2808 532.52)" class="st15 st11 st14">V</text>
<text transform="matrix(-7.828506e-02 0.9969 -0.9969 -7.828506e-02 992.2494 570.53)" class="st9 st11 st14">I</text>
<text transform="matrix(-7.828506e-02 0.9969 -0.9969 -7.828506e-02 992.2494 570.53)" class="st15 st11 st14">I</text>
<text transform="matrix(-0.1412 0.99 -0.99 -0.1412 991.4298 586.38)" class="st9 st11 st14">C</text>
<text transform="matrix(-0.1412 0.99 -0.99 -0.1412 991.4298 586.38)" class="st15 st11 st14">C</text>
<text transform="matrix(-0.2042 0.9789 -0.9789 -0.2042 985.1891 627.3)" class="st9 st11 st14">I</text>
<text transform="matrix(-0.2042 0.9789 -0.9789 -0.2042 985.1891 627.3)" class="st15 st11 st14">I</text>
<text transform="matrix(-0.2672 0.9636 -0.9636 -0.2672 982.3897 642.9099)" class="st9 st11 st14">O</text>
<text transform="matrix(-0.2672 0.9636 -0.9636 -0.2672 982.3897 642.9099)" class="st15 st11 st14">O</text>
<text transform="matrix(-0.3496 0.9369 -0.9369 -0.3496 971.03 683.4401)" class="st9 st11 st14">S</text>
<text transform="matrix(-0.3496 0.9369 -0.9369 -0.3496 971.03 683.4401)" class="st15 st11 st14">S</text>
<text transform="matrix(-0.4545 0.8908 -0.8908 -0.4545 953.9905 727.8499)" class="st9 st11 st14">N</text>
<text transform="matrix(-0.4545 0.8908 -0.8908 -0.4545 953.9905 727.8499)" class="st15 st11 st14">N</text>
<text transform="matrix(-0.536 0.8442 -0.8442 -0.536 934.6406 765.8099)" class="st9 st11 st14">O</text>
<text transform="matrix(-0.536 0.8442 -0.8442 -0.536 934.6406 765.8099)" class="st15 st11 st14">O</text>
<text transform="matrix(-0.5883 0.8086 -0.8086 -0.5883 911.6498 801.25)" class="st9 st11 st14">.</text>
<text transform="matrix(-0.5883 0.8086 -0.8086 -0.5883 911.6498 801.25)" class="st15 st11 st14">.</text>
<text transform="matrix(-0.6529 0.7575 -0.7575 -0.6529 895.6293 823.1497)" class="st9 st11 st14">1</text>
<text transform="matrix(-0.6529 0.7575 -0.7575 -0.6529 895.6293 823.1497)" class="st15 st11 st14">1</text>
<text transform="matrix(-0.7021 0.7121 -0.7121 -0.7021 875.7803 846.4395)" class="st9 st11 st42">2</text>
<text transform="matrix(-0.7021 0.7121 -0.7121 -0.7021 875.7803 846.4395)" class="st43 st11 st42">2</text>
<text transform="matrix(-0.755 0.6557 -0.6557 -0.755 851.1703 871.3992)" class="st9 st11 st44">8</text>
<text transform="matrix(-0.755 0.6557 -0.6557 -0.755 851.1703 871.3992)" class="st45 st11 st44">8</text>
</svg>
